<svg xmlns="http://www.w3.org/2000/svg" viewBox="0 0 44 20" width="44" height="20">
  <rect width="44" height="20" rx="4" fill="#1d1d1f"/>
  <path d="M10.5 4.5c.5-.6 1.2-1 1.8-1.1.1.7-.2 1.4-.7 1.9-.5.6-1.2.9-1.8.9-.1-.7.2-1.3.7-1.7zm.9 2c1 0 1.5.7 1.5.7s-.8.5-.8 1.5c0 1.2.9 1.6.9 1.6s-.7 1.8-1.6 1.8c-.4 0-.8-.3-1.2-.3-.5 0-.9.3-1.3.3-.8 0-2-1.6-2-3.3 0-1.6 1-2.5 1.9-2.5.5 0 1 .3 1.3.3.3 0 .8-.3 1.3-.1z" fill="#fff"/>
  <text x="28" y="14.5" text-anchor="middle" font-family="system-ui, sans-serif" font-weight="700" font-size="10" fill="#fff">tv+</text>
</svg>
